<svg width="279" height="73" viewBox="0 0 279 73" fill="none" xmlns="http://www.w3.org/2000/svg">
<path d="M144.208 41.48C141.776 41.48 139.664 41.048 137.872 40.184C136.112 39.32 134.768 38.088 133.84 36.488L138.016 32.456C138.688 33.64 139.552 34.568 140.608 35.24C141.664 35.88 142.896 36.2 144.304 36.2C145.936 36.2 147.28 35.736 148.336 34.808C149.392 33.88 150.112 32.392 150.496 30.344L154.048 12.632H142.048L143.104 7.4H161.2L156.688 30.008C156.144 32.824 155.312 35.08 154.192 36.776C153.104 38.44 151.728 39.64 150.064 40.376C148.4 41.112 146.448 41.48 144.208 41.48ZM174.321 41.24C172.177 41.24 170.273 40.808 168.609 39.944C166.945 39.08 165.649 37.848 164.721 36.248C163.793 34.648 163.329 32.744 163.329 30.536C163.329 28.392 163.681 26.408 164.385 24.584C165.089 22.76 166.081 21.176 167.361 19.832C168.641 18.456 170.145 17.4 171.873 16.664C173.633 15.928 175.537 15.56 177.585 15.56C179.793 15.56 181.665 15.96 183.201 16.76C184.737 17.528 185.921 18.664 186.753 20.168C187.585 21.64 188.001 23.432 188.001 25.544C188.001 28.584 187.441 31.288 186.321 33.656C185.201 36.024 183.617 37.88 181.569 39.224C179.521 40.568 177.105 41.24 174.321 41.24ZM175.041 38.216C177.153 38.216 179.025 37.72 180.657 36.728C182.321 35.704 183.617 34.296 184.545 32.504C185.505 30.712 185.984 28.68 185.984 26.408C185.984 23.912 185.249 21.976 183.777 20.6C182.337 19.224 180.305 18.536 177.681 18.536C175.601 18.536 173.729 19.048 172.065 20.072C170.401 21.096 169.089 22.504 168.129 24.296C167.201 26.056 166.737 28.088 166.737 30.392C166.737 32.856 167.457 34.776 168.897 36.152C170.369 37.528 172.417 38.216 175.041 38.216ZM183.345 41L184.785 33.752L186.225 28.664L186.705 23.384L188.241 15.8H191.649L186.609 41H183.345ZM206.852 41.24C204.708 41.24 202.804 40.808 201.14 39.944C199.476 39.08 198.18 37.848 197.252 36.248C196.324 34.648 195.86 32.744 195.86 30.536C195.86 28.392 196.212 26.408 196.916 24.584C197.62 22.76 198.612 21.176 199.892 19.832C201.172 18.456 202.676 17.4 204.404 16.664C206.164 15.928 208.068 15.56 210.116 15.56C212.324 15.56 214.196 15.96 215.732 16.76C217.268 17.528 218.452 18.664 219.284 20.168C220.116 21.64 220.532 23.432 220.532 25.544C220.532 27.816 220.212 29.912 219.572 31.832C218.964 33.752 218.052 35.416 216.836 36.824C215.62 38.232 214.164 39.32 212.468 40.088C210.804 40.856 208.932 41.24 206.852 41.24ZM207.572 38.216C209.684 38.216 211.556 37.72 213.188 36.728C214.852 35.704 216.148 34.296 217.076 32.504C218.036 30.712 218.516 28.68 218.516 26.408C218.516 23.912 217.78 21.976 216.308 20.6C214.868 19.224 212.836 18.536 210.212 18.536C208.132 18.536 206.26 19.048 204.596 20.072C202.932 21.096 201.62 22.504 200.66 24.296C199.732 26.056 199.268 28.088 199.268 30.392C199.268 32.856 199.988 34.776 201.428 36.152C202.9 37.528 204.948 38.216 207.572 38.216ZM215.876 41L217.316 33.752L218.756 28.664L219.236 23.384L222.836 5.384H226.244L219.14 41H215.876ZM240.151 41.24C237.751 41.24 235.655 40.808 233.863 39.944C232.103 39.048 230.743 37.8 229.783 36.2C228.855 34.6 228.391 32.696 228.391 30.488C228.391 27.608 228.999 25.048 230.215 22.808C231.431 20.568 233.095 18.808 235.207 17.528C237.319 16.216 239.703 15.56 242.359 15.56C244.599 15.56 246.535 15.992 248.167 16.856C249.799 17.688 251.063 18.904 251.959 20.504C252.887 22.104 253.351 24.024 253.351 26.264C253.351 26.776 253.319 27.304 253.255 27.848C253.191 28.36 253.111 28.856 253.015 29.336H230.887L231.319 26.792H251.431L250.039 27.752C250.359 25.736 250.215 24.04 249.607 22.664C248.999 21.288 248.055 20.248 246.775 19.544C245.527 18.808 244.023 18.44 242.263 18.44C240.215 18.44 238.391 18.952 236.791 19.976C235.191 20.968 233.943 22.36 233.047 24.152C232.151 25.912 231.703 27.976 231.703 30.344C231.703 32.872 232.423 34.824 233.863 36.2C235.335 37.544 237.527 38.216 240.439 38.216C242.135 38.216 243.703 37.944 245.143 37.4C246.583 36.824 247.767 36.04 248.695 35.048L250.231 37.496C249.047 38.68 247.559 39.608 245.767 40.28C244.007 40.92 242.135 41.24 240.151 41.24ZM137.968 70L144.688 36.4H157.648C161.712 36.4 164.848 37.296 167.056 39.088C169.296 40.88 170.416 43.36 170.416 46.528C170.416 49.376 169.76 51.84 168.448 53.92C167.168 55.968 165.328 57.552 162.928 58.672C160.528 59.76 157.68 60.304 154.384 60.304H143.44L146.752 57.328L144.208 70H137.968ZM146.608 58.048L144.4 55.024H154.624C157.632 55.024 159.968 54.352 161.632 53.008C163.296 51.664 164.128 49.696 164.128 47.104C164.128 45.28 163.504 43.92 162.256 43.024C161.04 42.128 159.28 41.68 156.976 41.68H147.232L150.496 38.56L146.608 58.048ZM183.836 70.24C181.692 70.24 179.788 69.808 178.124 68.944C176.46 68.08 175.164 66.848 174.236 65.248C173.308 63.648 172.844 61.744 172.844 59.536C172.844 57.392 173.196 55.408 173.9 53.584C174.604 51.76 175.596 50.176 176.876 48.832C178.156 47.456 179.66 46.4 181.388 45.664C183.148 44.928 185.052 44.56 187.1 44.56C189.308 44.56 191.18 44.96 192.716 45.76C194.252 46.528 195.436 47.664 196.268 49.168C197.1 50.64 197.516 52.432 197.516 54.544C197.516 57.584 196.956 60.288 195.836 62.656C194.716 65.024 193.132 66.88 191.084 68.224C189.036 69.568 186.62 70.24 183.836 70.24ZM184.556 67.216C186.668 67.216 188.54 66.72 190.172 65.728C191.836 64.704 193.132 63.296 194.06 61.504C195.02 59.712 195.5 57.68 195.5 55.408C195.5 52.912 194.764 50.976 193.292 49.6C191.852 48.224 189.82 47.536 187.196 47.536C185.116 47.536 183.244 48.048 181.58 49.072C179.916 50.096 178.604 51.504 177.644 53.296C176.716 55.056 176.252 57.088 176.252 59.392C176.252 61.856 176.972 63.776 178.412 65.152C179.884 66.528 181.932 67.216 184.556 67.216ZM192.86 70L194.3 62.752L195.74 57.664L196.22 52.384L197.756 44.8H201.164L196.124 70H192.86ZM212.143 70L205.903 44.8H209.311L214.975 68.176H213.343L228.319 44.8H231.871L215.599 70H212.143ZM242.448 70.24C240.048 70.24 237.952 69.808 236.16 68.944C234.4 68.048 233.04 66.8 232.08 65.2C231.152 63.6 230.688 61.696 230.688 59.488C230.688 56.608 231.296 54.048 232.512 51.808C233.728 49.568 235.392 47.808 237.504 46.528C239.616 45.216 242 44.56 244.656 44.56C246.896 44.56 248.832 44.992 250.464 45.856C252.096 46.688 253.36 47.904 254.256 49.504C255.184 51.104 255.648 53.024 255.648 55.264C255.648 55.776 255.616 56.304 255.552 56.848C255.488 57.36 255.408 57.856 255.312 58.336H233.184L233.616 55.792H253.728L252.336 56.752C252.656 54.736 252.512 53.04 251.904 51.664C251.296 50.288 250.352 49.248 249.072 48.544C247.824 47.808 246.32 47.44 244.56 47.44C242.512 47.44 240.688 47.952 239.088 48.976C237.488 49.968 236.24 51.36 235.344 53.152C234.448 54.912 234 56.976 234 59.344C234 61.872 234.72 63.824 236.16 65.2C237.632 66.544 239.824 67.216 242.736 67.216C244.432 67.216 246 66.944 247.44 66.4C248.88 65.824 250.064 65.04 250.992 64.048L252.528 66.496C251.344 67.68 249.856 68.608 248.064 69.28C246.304 69.92 244.432 70.24 242.448 70.24ZM259.897 70L264.889 44.8H268.153L266.713 52.24L266.329 50.944C267.449 48.736 268.921 47.12 270.745 46.096C272.601 45.072 274.905 44.56 277.657 44.56L277.033 47.872C276.873 47.872 276.713 47.872 276.553 47.872C276.425 47.84 276.265 47.824 276.073 47.824C273.385 47.824 271.161 48.608 269.401 50.176C267.673 51.712 266.489 54.048 265.849 57.184L263.305 70H259.897Z" fill="#1E1E1E"/>
<g clip-path="url(#clip0_4_18)">
<path d="M126 0H0V73H126V0Z" fill="#FD6F00"/>
<path d="M51.5613 37C51.5613 40.8934 50.8338 44.5466 49.3787 47.96C47.9237 51.32 45.9028 54.28 43.3161 56.84C40.7294 59.4 37.7116 61.4 34.2627 62.84C30.8676 64.28 27.2032 65 23.2692 65H0V57H23.2692C26.9876 57 30.3826 56.0934 33.4543 54.28C36.526 52.4666 38.9511 50.0666 40.7294 47.08C42.5617 44.04 43.4778 40.68 43.4778 37V17H0.00265664V9H51.5613V37ZM125.998 29.5714C125.998 33.2514 125.999 35.0933 125.999 39.2857C125.999 39.8571 125.999 39.5268 125.999 40.2359C124.308 42.6921 122.129 44.7068 119.465 46.28C116.393 48.0934 112.998 49 109.279 49H76.7835V41.08H109.279C111.543 41.08 113.59 40.5466 115.423 39.48C117.254 38.36 118.709 36.8934 119.788 35.08C120.865 33.2134 121.405 31.1866 121.405 29C121.405 26.76 120.865 24.7334 119.788 22.92C118.709 21.1066 117.254 19.6666 115.423 18.6C113.59 17.5334 111.543 17 109.279 17H72.2568V65H64.1733V9H109.279C112.998 9 116.393 9.90663 119.465 11.72C122.13 13.2472 124.308 15.2562 126 17.7471C125.998 18.8795 125.998 18.1429 125.998 18.7143C125.998 22.92 125.998 25.8914 125.998 29.5714Z" fill="white"/>
</g>
<defs>
<clipPath id="clip0_4_18">
<rect width="126" height="73" fill="white"/>
</clipPath>
</defs>
</svg>
