<svg width="113" height="101" viewBox="0 0 113 101" fill="none" xmlns="http://www.w3.org/2000/svg">
<path d="M3.66547 0.000299321C3.13735 -0.00647447 2.61413 0.101797 2.13257 0.317514C1.651 0.533231 1.22275 0.851164 0.877886 1.24899C0.533024 1.64681 0.279909 2.11489 0.136312 2.62035C-0.00728402 3.12581 -0.0378809 3.6564 0.04667 4.17487L15.4266 96.9151C15.618 98.05 16.2054 99.0815 17.0856 99.8285C17.9658 100.575 19.0825 100.99 20.2396 101H93.9546C94.822 101.011 95.6645 100.712 96.3288 100.157C96.993 99.602 97.4347 98.8283 97.5734 97.9767L112.953 4.21086C113.038 3.69239 113.007 3.16179 112.864 2.65634C112.72 2.15088 112.467 1.6828 112.122 1.28498C111.777 0.887151 111.349 0.569219 110.867 0.353502C110.386 0.137785 109.863 0.0295132 109.335 0.036287L3.66547 0.000299321ZM68.3516 67.0093H44.8294L38.4603 33.9007H74.0512L68.3516 67.0093Z" fill="#2684FF"/>
<path d="M108.014 33.9366H74.0511L68.3515 67.0453H44.8292L17.0549 99.8121C17.9353 100.569 19.0576 100.99 20.2214 101H93.9545C94.8219 101.011 95.6644 100.712 96.3287 100.157C96.9929 99.6019 97.4346 98.8283 97.5733 97.9767L108.014 33.9366Z" fill="url(#paint0_linear_12_81)"/>
<defs>
<linearGradient id="paint0_linear_12_81" x1="115.866" y1="43.2035" x2="59.975" y2="87.0676" gradientUnits="userSpaceOnUse">
<stop offset="0.18" stop-color="#0052CC"/>
<stop offset="1" stop-color="#2684FF"/>
</linearGradient>
</defs>
</svg>
