<svg width="90" height="115" viewBox="0 0 90 115" fill="none" xmlns="http://www.w3.org/2000/svg">
<g clip-path="url(#clip0_138_78)">
<path d="M30.502 99.0001C38.5044 99.0001 44.9991 92.8028 44.9991 85.1668V71.3334H30.502C22.4996 71.3334 16.0049 77.5308 16.0049 85.1668C16.0049 92.8028 22.4996 99.0001 30.502 99.0001Z" fill="#0ACF83"/>
<path d="M16.0049 57.4998C16.0049 49.8638 22.4996 43.6665 30.502 43.6665H44.9991V71.3332H30.502C22.4996 71.3332 16.0049 65.1358 16.0049 57.4998Z" fill="#A259FF"/>
<path d="M16.0032 29.8333C16.0032 22.1973 22.4979 16 30.5003 16H44.9974V43.6667H30.5003C22.4979 43.6667 16.0032 37.4693 16.0032 29.8333Z" fill="#F24E1E"/>
<path d="M45 16H59.4971C67.4995 16 73.9942 22.1973 73.9942 29.8333C73.9942 37.4693 67.4995 43.6667 59.4971 43.6667H45V16Z" fill="#FF7262"/>
<path d="M73.9942 57.4998C73.9942 65.1358 67.4995 71.3332 59.4971 71.3332C51.4947 71.3332 45 65.1358 45 57.4998C45 49.8638 51.4947 43.6665 59.4971 43.6665C67.4995 43.6665 73.9942 49.8638 73.9942 57.4998Z" fill="#1ABCFE"/>
</g>
<defs>
<clipPath id="clip0_138_78">
<rect width="58" height="83" fill="white" transform="translate(16 16)"/>
</clipPath>
</defs>
</svg>
