<svg width="101" height="101" viewBox="0 0 101 101" fill="none" xmlns="http://www.w3.org/2000/svg">
<g clip-path="url(#clip0_12_201)">
<path d="M99.0936 46.0024L54.9976 1.90641C54.3938 1.30231 53.6769 0.8231 52.8878 0.496149C52.0988 0.169198 51.2531 0.000915527 50.3989 0.000915527C49.5448 0.000915527 48.6991 0.169198 47.91 0.496149C47.121 0.8231 46.4041 1.30231 45.8003 1.90641L36.6472 11.0595L48.2622 22.6745C50.9639 21.7277 54.057 22.3747 56.2096 24.5273C57.2343 25.5538 57.9496 26.8478 58.2739 28.2615C58.5981 29.6752 58.5183 31.1516 58.0434 32.522L69.2386 43.7173C71.9467 42.783 75.0714 43.3858 77.2334 45.5542C77.9521 46.2731 78.5222 47.1266 78.9111 48.0658C79.3 49.005 79.5 50.0117 79.4999 51.0282C79.4997 52.0448 79.2994 53.0514 78.9102 53.9905C78.5211 54.9296 77.9507 55.7829 77.2318 56.5016C76.5129 57.2204 75.6594 57.7904 74.7202 58.1793C73.781 58.5682 72.7743 58.7683 71.7578 58.7681C70.7412 58.768 69.7346 58.5676 68.7955 58.1785C67.8564 57.7893 67.0031 57.219 66.2843 56.5001C64.0118 54.2276 63.45 50.8819 64.5989 48.0823L54.158 37.6415V65.1166C54.916 65.4917 55.6086 65.9862 56.2096 66.5811C56.9283 67.2998 57.4984 68.1531 57.8874 69.0921C58.2764 70.0312 58.4766 71.0376 58.4766 72.0541C58.4766 73.0705 58.2764 74.0769 57.8874 75.016C57.4984 75.955 56.9283 76.8083 56.2096 77.527C55.4909 78.2457 54.6376 78.8158 53.6986 79.2048C52.7595 79.5938 51.7531 79.794 50.7367 79.794C49.7202 79.794 48.7138 79.5938 47.7747 79.2048C46.8357 78.8158 45.9824 78.2457 45.2637 77.527C44.5442 76.8088 43.9733 75.9557 43.5838 75.0166C43.1943 74.0774 42.9938 73.0707 42.9938 72.0541C42.9938 71.0374 43.1943 70.0307 43.5838 69.0916C43.9733 68.1525 44.5442 67.2994 45.2637 66.5811C46.0118 65.8363 46.8419 65.2713 47.7982 64.8925V37.1617C46.8766 36.783 46.0118 36.2243 45.2637 35.4731C44.1769 34.3877 43.438 33.0031 43.1412 31.4961C42.8444 29.989 43.0032 28.4277 43.5972 27.0112L32.14 15.5603L1.90316 45.7657C1.2986 46.3695 0.818985 47.0866 0.491755 47.876C0.164524 48.6653 -0.00390625 49.5114 -0.00390625 50.3659C-0.00390625 51.2204 0.164524 52.0665 0.491755 52.8558C0.818985 53.6452 1.2986 54.3623 1.90316 54.9661L46.0023 99.0589C46.6061 99.663 47.323 100.142 48.112 100.469C48.9011 100.796 49.7468 100.964 50.6009 100.964C51.4551 100.964 52.3008 100.796 53.0898 100.469C53.8789 100.142 54.5958 99.663 55.1996 99.0589L99.0936 55.2344C99.6981 54.6306 100.178 53.9135 100.505 53.1241C100.832 52.3348 101.001 51.4887 101.001 50.6342C101.001 49.7797 100.832 48.9336 100.505 48.1442C100.178 47.3549 99.6981 46.6378 99.0936 46.0339" fill="#F03C2E"/>
</g>
<defs>
<clipPath id="clip0_12_201">
<rect width="101" height="101" fill="white"/>
</clipPath>
</defs>
</svg>
