<svg width="101" height="101" viewBox="0 0 101 101" fill="none" xmlns="http://www.w3.org/2000/svg">
<g clip-path="url(#clip0_12_80)">
<path d="M50.5578 1.38086C22.6391 1.38086 0 24.016 0 51.9387C0 74.2768 14.4863 93.2279 34.5746 99.9132C37.1012 100.381 38.0291 98.8164 38.0291 97.4809C38.0291 96.2755 37.9819 92.2925 37.9605 88.068C23.8949 91.1264 20.9269 82.1028 20.9269 82.1028C18.6271 76.259 15.3135 74.7054 15.3135 74.7054C10.7266 71.5674 15.6592 71.6316 15.6592 71.6316C20.7362 71.9885 23.4095 76.8419 23.4095 76.8419C27.9187 84.5712 35.2368 82.3364 38.1219 81.0449C38.5755 77.7768 39.886 75.5468 41.3317 74.2843C30.1023 73.0056 18.2972 68.6705 18.2972 49.2983C18.2972 43.7788 20.2723 39.2684 23.5067 35.7279C22.9817 34.4543 21.2513 29.3123 23.9964 22.3482C23.9964 22.3482 28.2419 20.9894 37.9034 27.5307C41.9359 26.4102 46.2611 25.8487 50.5578 25.8297C54.8544 25.8487 59.1828 26.4102 63.2233 27.5307C72.8733 20.9894 77.1129 22.3482 77.1129 22.3482C79.8647 29.3123 78.1335 34.4543 77.6085 35.7279C80.85 39.2684 82.8116 43.7784 82.8116 49.2983C82.8116 68.7165 70.9843 72.9925 59.7264 74.2439C61.5397 75.8129 63.1555 78.8899 63.1555 83.6064C63.1555 90.371 63.0968 95.8156 63.0968 97.4809C63.0968 98.8263 64.0068 100.403 66.5699 99.9064C86.6471 93.2136 101.115 74.2693 101.115 51.9387C101.115 24.016 78.4793 1.38086 50.5578 1.38086Z" fill="#161614"/>
<path d="M18.9357 73.4017C18.8246 73.6527 18.4289 73.728 18.0693 73.5559C17.7025 73.391 17.4963 73.0484 17.6153 72.7962C17.7243 72.5377 18.12 72.4655 18.486 72.6392C18.8536 72.8038 19.0629 73.1495 18.9357 73.4017ZM21.4226 75.6206C21.1815 75.8442 20.7101 75.7404 20.3901 75.3871C20.0594 75.0346 19.9975 74.5635 20.2422 74.3363C20.4908 74.113 20.948 74.2173 21.2795 74.5702C21.6102 74.9267 21.6744 75.395 21.4222 75.621M23.1288 78.4597C22.8187 78.675 22.312 78.4731 21.9992 78.0235C21.6895 77.5742 21.6895 77.035 22.0059 76.8189C22.3199 76.6028 22.8187 76.7971 23.136 77.2432C23.4452 77.7003 23.4452 78.2396 23.1284 78.4601M26.0139 81.748C25.7367 82.0533 25.1467 81.9716 24.7145 81.5545C24.2728 81.1469 24.1495 80.5683 24.4274 80.2626C24.7078 79.9565 25.3013 80.0426 25.7367 80.4561C26.1757 80.8629 26.3093 81.4458 26.0139 81.748ZM29.7427 82.8582C29.621 83.2539 29.0524 83.434 28.4798 83.2658C27.908 83.0926 27.5337 82.6286 27.6491 82.2285C27.7681 81.83 28.339 81.6425 28.916 81.8225C29.487 81.995 29.8617 82.4554 29.7427 82.8582ZM33.987 83.3289C34.0013 83.746 33.5156 84.0918 32.9144 84.0993C32.3098 84.1124 31.8209 83.775 31.8145 83.365C31.8145 82.9439 32.2891 82.6013 32.8934 82.5914C33.4946 82.5795 33.987 82.9145 33.987 83.3289ZM38.156 83.1691C38.2282 83.5759 37.8102 83.9938 37.2135 84.1049C36.6266 84.2119 36.0834 83.9609 36.0085 83.5577C35.9355 83.1405 36.3614 82.723 36.947 82.6148C37.545 82.5109 38.0799 82.7555 38.156 83.1691Z" fill="#161614"/>
</g>
<defs>
<clipPath id="clip0_12_80">
<rect width="101" height="101" fill="white"/>
</clipPath>
</defs>
</svg>
