<svg width="92" height="101" viewBox="0 0 92 101" fill="none" xmlns="http://www.w3.org/2000/svg">
<path d="M41.5364 1.0747C44.0614 -0.355077 47.2807 -0.361389 49.7426 1.0747L87.4409 22.3257C89.7986 23.6514 91.3767 26.2805 91.3546 28.9981V71.6074C91.3704 74.4386 89.6376 77.1245 87.1505 78.4249L49.6542 99.5781C48.3717 100.287 46.9229 100.639 45.4581 100.599C43.9934 100.558 42.5662 100.126 41.3249 99.3477L30.0729 92.8458C29.3059 92.3882 28.4442 92.0252 27.9014 91.2835C28.3811 90.6396 29.2333 90.5575 29.9277 90.2735C31.4932 89.7748 32.9261 89.011 34.3654 88.203C34.7283 87.9505 35.1734 88.0452 35.5205 88.2724L45.1155 93.8211C45.8005 94.2156 46.4948 93.6949 47.0819 93.3634L83.8995 72.5859C84.354 72.3649 84.6065 71.8852 84.5687 71.3865V29.1874C84.6192 28.6193 84.2941 28.1017 83.7796 27.8713L46.378 6.80961C46.1625 6.66053 45.9068 6.58041 45.6447 6.57985C45.3826 6.57928 45.1266 6.6583 44.9104 6.80646L7.56248 27.9123C7.05748 28.1427 6.7103 28.654 6.77342 29.2221V71.4212C6.72923 71.9199 6.99436 72.3902 7.45202 72.6048L17.4321 78.2387C19.3069 79.2487 21.6078 79.8168 23.672 79.0751C24.5753 78.7347 25.3529 78.1263 25.9007 77.3314C26.4485 76.5366 26.7402 75.5933 26.7367 74.628L26.7462 32.6814C26.702 32.0596 27.289 31.5451 27.8919 31.6083H32.6894C33.3206 31.5925 33.8162 32.2616 33.731 32.8865L33.7215 75.0982C33.7246 78.8479 32.1844 82.9257 28.7157 84.7658C24.4421 86.9752 19.1585 86.5112 14.9355 84.3871L4.20423 78.4533C1.67923 77.1908 -0.015672 74.4638 0.000109274 71.6358V29.0265C0.010608 27.6416 0.391327 26.2847 1.1028 25.0965C1.81427 23.9083 2.8306 22.9321 4.04642 22.2689L41.5364 1.0747ZM52.4065 30.6109C57.8573 30.2953 63.6932 30.4026 68.598 33.0885C72.395 35.1464 74.5002 39.4642 74.5697 43.6872C74.4624 44.2554 73.869 44.571 73.3261 44.53C71.748 44.5268 70.1636 44.5521 68.5791 44.5205C67.9068 44.5457 67.5186 43.9271 67.4334 43.3337C66.9789 41.3137 65.8774 39.3158 63.9773 38.3405C61.0609 36.8792 57.6774 36.9518 54.4959 36.9834C52.1729 37.1096 49.6763 37.3085 47.71 38.672C46.195 39.7072 45.7405 41.8282 46.2802 43.4758C46.7852 44.6846 48.1834 45.0728 49.3228 45.4326C55.8941 47.1496 62.8537 47.0108 69.3019 49.2422C71.9689 50.1639 74.5791 51.9566 75.4945 54.7499C76.6875 58.4932 76.1667 62.9688 73.506 65.9735C71.3471 68.448 68.2035 69.761 65.063 70.5248C60.8873 71.4559 56.557 71.478 52.3181 71.0614C48.3318 70.6069 44.1845 69.559 41.1071 66.8446C38.4748 64.5595 37.1934 60.9993 37.3196 57.5653C37.3512 56.9845 37.9288 56.5805 38.4874 56.6279H43.2218C43.8594 56.5837 44.3265 57.1329 44.358 57.7325C44.6516 59.6263 45.3744 61.6779 47.0535 62.7825C50.2918 64.872 54.3539 64.7268 58.0593 64.7868C61.1304 64.651 64.577 64.61 67.0862 62.5774C68.4118 61.419 68.8 59.4843 68.4434 57.8178C68.0552 56.4101 66.5496 55.7567 65.2871 55.2928C58.801 53.2412 51.7626 53.9861 45.3396 51.6631C42.7326 50.7415 40.2107 48.9992 39.2102 46.3195C37.812 42.5321 38.4527 37.8387 41.3975 34.935C44.2381 32.047 48.4044 30.9328 52.3497 30.5351L52.4065 30.6109Z" fill="#8CC84B"/>
</svg>
