<svg width="71" height="72" viewBox="0 0 71 72" fill="none" xmlns="http://www.w3.org/2000/svg">
<g clip-path="url(#clip0_121_69)">
<path d="M27.3047 60.449H67.4609V44.0701H27.3047V60.449ZM3.51468 34.1765H43.6738V17.7986H3.51468V34.1765ZM49.0674 7.94019H56.5488V3.87476H49.0674V7.94019ZM14.4688 7.92554H45.7432V3.86401H14.4688V7.92554ZM70.7529 62.5623L70.7285 62.613C70.523 63.0436 70.2381 63.3382 69.877 63.5193C69.6105 63.6528 69.3141 63.7194 68.9971 63.7419L68.6738 63.7507C65.9051 63.7161 63.1377 63.738 60.3643 63.738H59.8135C59.8109 65.5381 59.7838 67.2619 59.8291 68.9861C59.8407 69.4319 59.7785 69.8394 59.6006 70.1951C59.4209 70.5543 59.1327 70.8419 58.7275 71.0642L58.6709 71.0955H12.3301L12.2744 71.0652C11.8643 70.8418 11.5812 70.5509 11.4053 70.1902C11.2317 69.8343 11.1709 69.4284 11.1719 68.9871C11.1938 58.6698 11.1865 48.3527 11.1865 38.0349V37.4626C8.12631 37.4627 5.15624 37.4644 2.18851 37.4626C1.55927 37.4625 1.05451 37.3371 0.713894 36.9919C0.374035 36.6476 0.251045 36.1387 0.251004 35.5046C0.249177 29.1499 0.249177 22.7949 0.251004 16.4402L0.257839 16.2156C0.286449 15.7053 0.418571 15.2892 0.713894 14.9949C1.0512 14.6588 1.54814 14.5339 2.16312 14.533H11.1865V13.9812C11.1865 10.2206 11.2066 6.46605 11.1719 2.70874C11.168 2.26655 11.2281 1.8592 11.4023 1.50269C11.5789 1.14158 11.8634 0.850969 12.2744 0.628662L12.3301 0.598389H58.3555V0.420654L58.7246 0.621826C59.1349 0.845253 59.4186 1.13659 59.5947 1.4978C59.7685 1.85411 59.8291 2.2603 59.8271 2.7019C59.7998 8.26094 59.8125 13.818 59.8125 19.3787C59.8125 19.5433 59.8214 19.7516 59.8018 19.948C59.7213 20.8126 59.0624 21.4538 58.2119 21.4626C57.389 21.4707 56.7168 20.8933 56.6025 20.0671L56.5879 19.8982C56.5565 19.1638 56.5762 18.4198 56.5762 17.7V11.2654H14.4717V14.5281H44.8359C45.572 14.5281 46.1357 14.6254 46.499 14.9851C46.8629 15.3457 46.9609 15.9056 46.9609 16.6355V35.364C46.9609 36.0776 46.8559 36.6298 46.499 36.991C46.1412 37.353 45.5927 37.4607 44.8848 37.4607H14.4717V67.8171H56.5439V63.7341H26.2441C25.4547 63.7341 24.8634 63.6494 24.4932 63.2732C24.1244 62.8984 24.041 62.3014 24.041 61.5007V42.8416C24.041 42.1566 24.1555 41.6197 24.5146 41.2654C24.873 40.9121 25.4152 40.7996 26.1084 40.7996H56.5801V40.3025C56.5801 37.6597 56.5766 35.0155 56.582 32.3738C56.5821 31.9313 56.6767 31.5464 56.8799 31.24C57.0852 30.9305 57.388 30.7222 57.7637 30.6111L57.9619 30.5642C58.4226 30.4861 58.8607 30.6151 59.1953 30.8982C59.5753 31.2198 59.8074 31.727 59.8105 32.3201C59.8215 34.964 59.8145 37.6093 59.8145 40.2498V40.8015H61.5244C63.8969 40.8015 66.2628 40.8269 68.6289 40.7869C69.0705 40.7792 69.477 40.8407 69.835 41.0144C70.1966 41.19 70.4914 41.4715 70.7207 41.8738L70.7529 41.9314V62.5623Z" fill="#FD6F00" stroke="#FD6F00" stroke-width="0.5"/>
<path d="M58.2974 24.1338C59.2491 24.1868 60.0334 24.9692 60.0571 25.9434C60.0822 26.9726 59.2253 27.8544 58.1948 27.8545C57.2 27.8545 56.3596 27.0268 56.3345 26.0342C56.3094 25.0346 57.1036 24.1804 58.105 24.1328L58.2974 24.1338Z" fill="#FD6F00" stroke="#FD6F00"/>
<path d="M13.21 21.3403C14.7351 21.3403 16.2584 21.3349 17.7835 21.3421C18.8612 21.3476 19.3616 21.8526 19.3653 22.939C19.3726 24.9643 19.3726 26.9877 19.3653 29.013C19.3616 30.125 18.852 30.6317 17.7233 30.6335C14.7205 30.639 11.7178 30.639 8.71322 30.6335C7.58262 30.6317 7.06755 30.1268 7.0639 29.0203C7.05659 26.995 7.05842 24.9716 7.0639 22.9463C7.06755 21.8307 7.56618 21.344 8.70591 21.3403C10.2073 21.3349 11.7086 21.3403 13.21 21.3403ZM16.5945 27.87V24.1166H9.84746V27.87H16.5945Z" fill="black"/>
<path d="M31.6849 24.0728C29.5004 24.0728 27.3178 24.0728 25.1333 24.0728C24.9507 24.0728 24.768 24.0801 24.5872 24.0691C23.7653 24.0145 23.1881 23.4329 23.2009 22.6783C23.2119 21.9145 23.789 21.3566 24.631 21.3457C25.8822 21.3293 27.1333 21.3402 28.3845 21.3402C31.5918 21.3402 34.7991 21.3402 38.0064 21.3402C39.5077 21.3402 40.1598 21.7613 40.1434 22.7202C40.1269 23.6517 39.4712 24.0728 38.0319 24.0728C35.9169 24.0728 33.8018 24.0728 31.6849 24.0728Z" fill="black"/>
<path d="M31.705 27.9047C34.0484 27.9047 36.3918 27.8956 38.7333 27.9101C39.5681 27.9156 40.1434 28.4935 40.1434 29.2609C40.1434 29.9901 39.5881 30.5625 38.8046 30.6299C38.6238 30.6445 38.4411 30.6372 38.2585 30.6372C33.8676 30.6372 29.4786 30.6372 25.0877 30.6372C24.9507 30.6372 24.8137 30.6409 24.6786 30.6372C23.8037 30.6026 23.2028 30.0429 23.2009 29.2664C23.2009 28.4771 23.7909 27.9138 24.6749 27.9101C27.0183 27.8992 29.3598 27.9065 31.7032 27.9083L31.705 27.9047Z" fill="black"/>
<path d="M36.9799 56.9054C35.4548 56.9054 33.9315 56.9127 32.4064 56.9036C31.3707 56.8981 30.8593 56.384 30.8538 55.345C30.8447 53.2978 30.8465 51.2507 30.8538 49.2017C30.8575 48.1335 31.378 47.614 32.4557 47.6122C35.4822 47.6049 38.5068 47.6049 41.5333 47.6122C42.6456 47.614 43.1516 48.1299 43.1552 49.251C43.1607 51.2762 43.1625 53.2997 43.1552 55.3249C43.1516 56.3986 42.6401 56.8981 41.5534 56.9036C40.0283 56.9109 38.505 56.9036 36.9799 56.9036V56.9054ZM33.6173 54.1218H40.3643V50.3812H33.6173V54.1218Z" fill="black"/>
<path d="M55.4548 50.3448C53.1808 50.3448 50.905 50.3484 48.631 50.3448C47.6192 50.343 47.0091 49.8398 46.9909 49.0122C46.9726 48.1701 47.6192 47.6141 48.6457 47.6141C53.1954 47.6104 57.7452 47.6104 62.2931 47.6141C63.2941 47.6141 63.9151 48.1354 63.9333 48.9576C63.9516 49.807 63.3196 50.343 62.2804 50.3448C60.0064 50.3484 57.7306 50.3448 55.4566 50.3448H55.4548Z" fill="black"/>
<path d="M55.4693 56.9073C53.1954 56.9073 50.9196 56.9091 48.6456 56.9073C47.6008 56.9073 46.9744 56.375 46.9908 55.5219C47.0072 54.7052 47.6355 54.1766 48.6292 54.1766C53.2008 54.1729 57.7725 54.1729 62.346 54.1766C63.241 54.1766 63.8218 54.6305 63.9241 55.3688C64.0136 56.0068 63.6027 56.6648 62.9671 56.8417C62.7314 56.9073 62.4721 56.9055 62.2237 56.9055C59.9716 56.9091 57.7196 56.9073 55.4675 56.9073H55.4693Z" fill="black"/>
</g>
<defs>
<clipPath id="clip0_121_69">
<rect width="71" height="72" fill="white"/>
</clipPath>
</defs>
</svg>
