<svg width="101" height="101" viewBox="0 0 101 101" fill="none" xmlns="http://www.w3.org/2000/svg">
<g clip-path="url(#clip0_12_65)">
<path fill-rule="evenodd" clip-rule="evenodd" d="M88.9941 -0.361816H12.7134C9.34164 -0.361815 6.10792 0.977634 3.72369 3.36187C2.54122 4.54434 1.60365 5.94847 0.964674 7.49385C0.325704 9.03923 -0.00210999 10.6955 1.02193e-05 12.3678V88.6484C1.02193e-05 92.0202 1.33946 95.2539 3.72369 97.6381C6.10792 100.022 9.34164 101.362 12.7134 101.362H88.9941C92.3547 101.345 95.5719 99.9978 97.9422 97.6154C100.312 95.233 101.643 92.009 101.643 88.6484V12.3839C101.643 9.02323 100.312 5.79926 97.9422 3.41687C95.5719 1.03449 92.3547 -0.31249 88.9941 -0.329549V-0.361816ZM44.2389 76.6932C44.2219 78.2995 43.5719 79.8341 42.43 80.9639C41.2881 82.0937 39.7466 82.7274 38.1403 82.7273H19.3606C17.7487 82.7359 16.1989 82.106 15.0501 80.9753C13.9012 79.8446 13.2468 78.3051 13.2297 76.6932V18.9988C13.2276 18.1938 13.3848 17.3964 13.6924 16.6525C13.9999 15.9086 14.4517 15.2329 15.0216 14.6645C15.5916 14.0961 16.2684 13.6461 17.0131 13.3405C17.7578 13.0349 18.5556 12.8798 19.3606 12.884H38.1403C39.7578 12.884 41.309 13.5266 42.4527 14.6703C43.5964 15.814 44.2389 17.3652 44.2389 18.9826V76.6932ZM88.4939 51.2664C88.4939 52.8838 87.8514 54.435 86.7077 55.5787C85.564 56.7224 84.0128 57.3649 82.3954 57.3649H63.5672C61.9498 57.3649 60.3986 56.7224 59.2549 55.5787C58.1112 54.435 57.4686 52.8838 57.4686 51.2664V18.9988C57.4665 18.1965 57.6227 17.4017 57.9282 16.66C58.2337 15.9182 58.6826 15.244 59.2491 14.676C59.8157 14.108 60.4887 13.6573 61.2296 13.3498C61.9706 13.0423 62.765 12.884 63.5672 12.884H82.3954C84.0128 12.884 85.564 13.5266 86.7077 14.6703C87.8514 15.814 88.4939 17.3652 88.4939 18.9826V51.2664Z" fill="url(#paint0_linear_12_65)"/>
</g>
<defs>
<linearGradient id="paint0_linear_12_65" x1="50.8538" y1="101.378" x2="50.8538" y2="-0.345688" gradientUnits="userSpaceOnUse">
<stop offset="0.18" stop-color="#0052CC"/>
<stop offset="1" stop-color="#2684FF"/>
</linearGradient>
<clipPath id="clip0_12_65">
<rect width="101" height="101" fill="white"/>
</clipPath>
</defs>
</svg>
