<svg width="100" height="100" viewBox="0 0 100 100" fill="none" xmlns="http://www.w3.org/2000/svg">
<path d="M0 50V100H50H100V50V0H50H0V50Z" fill="#007ACC"/>
<path d="M22.1132 50.3317L22.0815 54.427L28.5894 54.427H35.0974V72.919V91.4111H39.7005H44.3037V72.919L44.3037 54.427H50.8116H57.3196V50.4111C57.3196 48.1889 57.272 46.3317 57.2085 46.2841C57.1608 46.2206 49.2402 46.1889 39.637 46.2048L22.1609 46.2524L22.1132 50.3317Z" fill="white"/>
<path d="M80.6904 46.1362C83.2301 46.7711 85.1666 47.8981 86.9444 49.7393C87.865 50.7235 89.2301 52.5171 89.3412 52.9457C89.373 53.0727 85.0238 55.9933 82.3888 57.6282C82.2936 57.6917 81.9127 57.279 81.4841 56.6441C80.1984 54.7711 78.8492 53.9616 76.7857 53.8187C73.7539 53.6124 71.8015 55.1997 71.8174 57.8505C71.8174 58.6282 71.9285 59.0886 72.246 59.7235C72.9127 61.1044 74.1508 61.9298 78.0396 63.6124C85.1984 66.6917 88.2619 68.7235 90.1666 71.6124C92.2936 74.8346 92.7698 79.9774 91.3254 83.8028C89.7381 87.9616 85.8015 90.787 80.2619 91.7235C78.5476 92.0251 74.4841 91.9774 72.6428 91.6441C68.6269 90.9298 64.8174 88.9457 62.4682 86.3425C61.5476 85.3266 59.7539 82.6759 59.865 82.4854C59.9127 82.4219 60.3254 82.1679 60.7857 81.8981C61.2301 81.6441 62.9127 80.6759 64.5 79.7552L67.373 78.0885L67.9762 78.9774C68.8174 80.2631 70.6587 82.0251 71.7698 82.6124C74.9603 84.2949 79.3412 84.0568 81.5 82.1203C82.4206 81.279 82.8015 80.406 82.8015 79.1203C82.8015 77.9616 82.6587 77.4536 82.0555 76.5806C81.2777 75.4695 79.6904 74.533 75.1825 72.5806C70.0238 70.3584 67.8016 68.9774 65.7698 66.787C64.5952 65.5171 63.4841 63.4854 63.0238 61.787C62.6428 60.3743 62.5476 56.8346 62.8492 55.406C63.9127 50.4219 67.6746 46.9457 73.1031 45.9139C74.865 45.5806 78.9603 45.7076 80.6904 46.1362Z" fill="white"/>
</svg>
